:SAMPLES-PER-SECOND 30
:FULLY-SPECIFIED
:DEGREES
139
root  49.4954 37.118 2.86617 47.9705 83.5547 48.6412
RightUpLeg  2.03545 0.999198 -7.31773
RightLeg  51.7866 8.55664 -2.38264
RightFoot  23.3222 -2.93151 8.93201
RightToes  1.16414e-010 -1.59028e-015 9.93923e-017
Spine  3.18731 2.74667 -0.51561
Spine1  6.62042 4.39935 -11.5486
HEad  -16.6451 -1.6403 5.06697
LeftShoulder1  9.93923e-017 0 1.22299e-017
LeftArm  -7.90097 46.7203 -66.6018
LeftForeArm  3.4036 -2.67129 -6.00981
LeftHand  1.06205 7.88936 -6.86344
RightShoulder  1.98785e-016 -4.96962e-017 1.55301e-017
RightArm  -10.9375 -12.2471 83.2092
RightForeArm  -174.951 29.1612 -25.4614
RightHand  1.91275 7.23803 21.598
LeftUpLeg  -26.5659 -6.23838 -7.76403
LeftLeg  29.1263 -0.527785 5.76993
LeftFoot  -3.20908 -0.141983 1.4671
LeftToes  -6.63929e-010 -3.62392e-011 -1.02376e-010
140
root  51.3159 37.5353 2.76363 51.4402 83.9851 52.1977
RightUpLeg  -3.52781 0.844007 -6.50404
RightLeg  57.3924 8.24446 -3.70095
RightFoot  21.0577 -2.60807 8.46237
RightToes  1.16414e-010 -1.59028e-015 9.93923e-017
Spine  2.91022 1.95002 -1.50496
Spine1  6.25944 3.18995 -10.5974
HEad  -15.4034 -0.736951 4.55266
LeftShoulder1  9.93923e-017 0 1.22299e-017
LeftArm  -9.51184 39.2253 -71.8504
LeftForeArm  -0.607876 -3.87734 -6.14113
LeftHand  1.00324 7.14427 -4.61987
RightShoulder  1.98785e-016 -4.96962e-017 1.55301e-017
RightArm  -10.6295 -20.183 85.5872
RightForeArm  -171.445 24.405 -22.016
RightHand  1.9009 7.30231 21.441
LeftUpLeg  -22.7094 -6.66356 -8.17438
LeftLeg  28.1315 -0.462173 5.51189
LeftFoot  -5.35527 -0.103033 1.23282
LeftToes  -6.63929e-010 -3.62392e-011 -1.02376e-010
141
root  53.1895 38.0433 2.69463 57.4046 85.3768 58.3949
RightUpLeg  -8.39571 0.238574 -4.69249
RightLeg  59.8321 8.71043 -3.32294
RightFoot  16.4744 -1.87461 7.11229
RightToes  1.16414e-010 -1.59028e-015 9.93923e-017
Spine  2.60858 0.826418 -2.24411
Spine1  5.71521 1.53829 -8.77196
HEad  -14.1112 0.473801 4.06377
LeftShoulder1  9.93923e-017 0 1.22299e-017
LeftArm  -6.78109 32.3528 -75.6189
LeftForeArm  -8.01555 -9.7848 -3.88482
LeftHand  0.921031 6.42839 -2.77971
RightShoulder  1.98785e-016 -4.96962e-017 1.55301e-017
RightArm  -13.2493 -27.9267 86.8427
RightForeArm  -165.865 18.5367 -16.624
RightHand  1.93596 7.74248 21.3887
LeftUpLeg  -18.1309 -7.35883 -7.79247
LeftLeg  26.0436 -0.551942 4.91752
LeftFoot  -7.00523 -0.0721942 0.92619
LeftToes  -6.63929e-010 -3.62392e-011 -1.02376e-010
142
root  55.054 38.4469 2.65309 78.7573 87.1123 79.8136
RightUpLeg  -12.8483 -0.700941 -2.66985
RightLeg  59.33 9.29917 -2.1318
RightFoot  12.8665 -1.49549 6.50092
RightToes  1.16414e-010 -1.59028e-015 9.93923e-017
Spine  2.23178 -0.666054 -3.41152
Spine1  5.07728 -0.64182 -6.06822
HEad  -12.9206 2.17892 3.54283
LeftShoulder1  9.93923e-017 0 1.22299e-017
LeftArm  6.32197 26.1797 -78.4483
LeftForeArm  -25.0348 -18.8027 3.65794
LeftHand  0.854291 5.94051 -1.86741
RightShoulder  1.98785e-016 -4.96962e-017 1.55301e-017
RightArm  -19.6405 -35.1736 86.5381
RightForeArm  -156.805 12.4507 -10.6674
RightHand  1.85231 8.13695 20.4408
LeftUpLeg  -13.7965 -7.43357 -7.15324
LeftLeg  23.897 -1.84589 4.21097
LeftFoot  -8.50324 -0.067773 1.01185
LeftToes  -6.63929e-010 -3.62392e-011 -1.02376e-010
143
root  56.9121 38.7615 2.62836 125.904 87.8964 126.849
RightUpLeg  -16.9936 -1.46303 -0.864219
RightLeg  56.3282 9.64804 -1.19311
RightFoot  10.0494 -1.23338 6.02029
RightToes  1.16414e-010 -1.59028e-015 9.93923e-017
Spine  1.91194 -2.17639 -4.95727
Spine1  4.36607 -2.82758 -2.70483
HEad  -12.0801 3.86838 3.18121
LeftShoulder1  9.93923e-017 0 1.22299e-017
LeftArm  21.2342 20.1198 -79.9049
LeftForeArm  -42.8736 -25.2488 15.0813
LeftHand  0.835994 5.8448 -1.3321
RightShoulder  1.98785e-016 -4.96962e-017 1.55301e-017
RightArm  -22.3511 -42.4753 84.6379
RightForeArm  -151.104 7.75138 -8.11252
RightHand  1.71286 8.53354 19.112
LeftUpLeg  -9.80954 -5.62832 -6.36319
LeftLeg  21.6641 -5.17389 3.28717
LeftFoot  -9.52622 -0.0736389 1.34296
LeftToes  -6.63929e-010 -3.62392e-011 -1.02376e-010
144
root  58.7426 39.0063 2.62057 164.294 87.145 165.268
RightUpLeg  -20.4685 -1.63923 0.399789
RightLeg  51.0736 9.47943 -1.04032
RightFoot  6.7482 -0.867785 4.95912
RightToes  1.16414e-010 -1.59028e-015 9.93923e-017
Spine  1.95368 -3.22812 -6.606
Spine1  3.82688 -4.4143 0.70939
HEad  -11.9649 4.90819 3.03297
LeftShoulder1  9.93923e-017 0 1.22299e-017
LeftArm  20.011 13.0934 -79.4485
LeftForeArm  -41.3055 -30.1385 19.4415
LeftHand  0.843895 5.99265 -0.258956
RightShoulder  1.98785e-016 -4.96962e-017 1.55301e-017
RightArm  -22.3752 -50.3336 80.8818
RightForeArm  -148.379 6.14531 -7.79949
RightHand  1.61918 9.04925 18.1305
LeftUpLeg  -5.8863 -3.14913 -5.29811
LeftLeg  19.5081 -8.87286 2.31255
LeftFoot  -10.0656 -0.0658099 1.23803
LeftToes  -6.63929e-010 -3.62392e-011 -1.02376e-010
145
root  60.529 39.0954 2.63425 172.257 86.2201 173.434
RightUpLeg  -22.8917 -1.45105 0.821121
RightLeg  43.5416 9.05595 -1.06351
RightFoot  3.93426 -0.584401 3.92293
RightToes  1.16414e-010 -1.59028e-015 9.93923e-017
Spine  2.16587 -3.8281 -8.22348
Spine1  3.70615 -5.37142 3.32949
HEad  -12.5248 5.35786 3.00724
LeftShoulder1  9.93923e-017 0 1.22299e-017
LeftArm  18.1442 5.42991 -78.3341
LeftForeArm  -37.7664 -34.7327 21.4079
LeftHand  0.832262 6.02902 1.40272
RightShoulder  1.98785e-016 -4.96962e-017 1.55301e-017
RightArm  -19.4283 -58.2518 75.4934
RightForeArm  -150.375 6.59084 -8.78681
RightHand  1.5996 9.46378 17.791
LeftUpLeg  -2.05321 -1.39855 -4.43928
LeftLeg  17.9088 -11.5315 1.72828
LeftFoot  -10.6507 -0.0520792 0.876444
LeftToes  -6.63929e-010 -3.62392e-011 -1.02376e-010
146
root  62.304 39.0415 2.64558 173.69 85.5437 174.899
RightUpLeg  -24.164 -1.18515 0.753228
RightLeg  33.4172 9.32154 -0.367087
RightFoot  3.4133 -0.491356 3.40077
RightToes  1.16414e-010 -1.59028e-015 9.93923e-017
Spine  1.91734 -4.42343 -9.09049
Spine1  4.03497 -6.04901 4.62185
HEad  -13.0936 5.69928 3.08457
LeftShoulder1  9.93923e-017 0 1.22299e-017
LeftArm  17.8702 -1.88189 -76.8577
LeftForeArm  -36.0119 -37.6574 22.9451
LeftHand  0.790864 5.8563 2.74624
RightShoulder  1.98785e-016 -4.96962e-017 1.55301e-017
RightArm  -14.0117 -65.116 68.5041
RightForeArm  -154.72 7.44211 -9.91547
RightHand  1.6129 9.45237 17.8934
LeftUpLeg  1.57207 -0.368405 -3.7688
LeftLeg  16.5135 -13.2523 1.46793
LeftFoot  -11.4681 -0.0491879 0.936936
LeftToes  -6.63929e-010 -3.62392e-011 -1.02376e-010
147
root  64.0771 38.982 2.62621 178.734 85.1095 179.677
RightUpLeg  -24.1911 -0.22973 0.709876
RightLeg  20.3599 9.92441 0.463441
RightFoot  4.45747 -0.534984 3.46814
RightToes  1.16414e-010 -1.59028e-015 9.93923e-017
Spine  1.05278 -5.16097 -8.50742
Spine1  4.82152 -6.64531 4.84815
HEad  -13.166 6.06726 3.22956
LeftShoulder1  9.93923e-017 0 1.22299e-017
LeftArm  17.5182 -8.02927 -75.2057
LeftForeArm  -35.1061 -39.0997 23.7553
LeftHand  0.748361 5.63735 3.20323
RightShoulder  1.98785e-016 -4.96962e-017 1.55301e-017
RightArm  -6.38765 -70.0486 59.7362
RightForeArm  -157.059 7.97875 -10.4389
RightHand  1.60803 9.35204 17.9051
LeftUpLeg  5.15203 0.497493 -2.60416
LeftLeg  14.4271 -14.5592 1.12195
LeftFoot  -11.9739 -0.0451352 0.804851
LeftToes  -6.63929e-010 -3.62392e-011 -1.02376e-010
148
root  65.8636 38.8901 2.61204 -176.077 84.8454 -175.404
RightUpLeg  -23.0791 2.08673 0.22349
RightLeg  6.02369 8.29508 0.67027
RightFoot  4.5887 -0.677892 4.377
RightToes  1.16414e-010 -1.59028e-015 9.93923e-017
Spine  0.108645 -5.75339 -7.59282
Spine1  5.87166 -7.16898 4.90973
HEad  -13.0053 6.25619 3.31468
LeftShoulder1  9.93923e-017 0 1.22299e-017
LeftArm  16.942 -12.6984 -73.772
LeftForeArm  -34.8635 -39.576 24.0271
LeftHand  0.715093 5.45347 3.32484
RightShoulder  1.98785e-016 -4.96962e-017 1.55301e-017
RightArm  2.22889 -72.8496 50.1012
RightForeArm  -156.186 8.07386 -10.3486
RightHand  1.60816 9.65856 17.7651
LeftUpLeg  8.64029 1.35296 -1.09537
LeftLeg  12.4285 -15.8751 0.596597
LeftFoot  -11.9521 -0.0295743 -0.406669
LeftToes  -6.63929e-010 -3.62392e-011 -1.02376e-010
149
root  67.7309 38.6485 2.65921 -175.974 84.5686 -175.441
RightUpLeg  -22.2192 3.7555 -0.329807
RightLeg  -3.95682 4.7819 0.941907
RightFoot  3.43675 -0.775878 5.33312
RightToes  1.16414e-010 -1.59028e-015 9.93923e-017
Spine  -0.497996 -6.11689 -7.79241
Spine1  6.71895 -7.68023 5.62562
HEad  -13.1572 6.2835 3.24311
LeftShoulder1  9.93923e-017 0 1.22299e-017
LeftArm  16.3781 -15.6592 -72.8647
LeftForeArm  -34.9314 -39.6212 24.0471
LeftHand  0.683772 5.32796 3.92652
RightShoulder  1.98785e-016 -4.96962e-017 1.55301e-017
RightArm  8.994 -73.9618 42.1784
RightForeArm  -154.491 7.64404 -10.0688
RightHand  1.61739 10.117 17.6279
LeftUpLeg  11.7317 1.86889 0.117384
LeftLeg  11.908 -17.3983 0.105868
LeftFoot  -11.6881 -0.00702814 -1.82633
LeftToes  -6.63929e-010 -3.62392e-011 -1.02376e-010
150
root  69.6659 38.3515 2.75038 -173.485 84.2364 -173.267
RightUpLeg  -23.2876 3.90895 0.21115
RightLeg  -4.53682 1.85709 1.19617
RightFoot  3.5427 -0.705739 4.85502
RightToes  1.16414e-010 -1.59028e-015 9.93923e-017
Spine  -0.905086 -6.35388 -7.97913
Spine1  7.3509 -8.20121 6.8674
HEad  -13.7336 6.43404 2.90056
LeftShoulder1  9.93923e-017 0 1.22299e-017
LeftArm  15.7679 -16.5267 -72.5816
LeftForeArm  -35.1485 -39.6975 24.0747
LeftHand  0.671491 5.34407 4.875
RightShoulder  1.98785e-016 -4.96962e-017 1.55301e-017
RightArm  11.6858 -74.0791 38.2605
RightForeArm  -154.165 6.93236 -10.0318
RightHand  1.6209 10.2674 17.5879
LeftUpLeg  14.2074 1.46263 1.424
LeftLeg  12.3674 -18.4219 -0.357544
LeftFoot  -10.9563 0.0297328 -2.95875
LeftToes  -6.63929e-010 -3.62392e-011 -1.02376e-010
